<svg height="240" viewBox="0 0 176 240" width="176" xmlns="http://www.w3.org/2000/svg"><path d="m88.3 227.4 81.2-222.5h-162.3z" fill="#f0de7f" stroke="#70683f" stroke-linecap="round" stroke-linejoin="round" stroke-width="4"/><path d="m57 71.3 5.4-10.9-7.6-3.3-5.5 10.9-7.5-3.3 5.5-10.9-7.7-3.4 2.8-6.4 8 3.6 6.2-12.4-8.7-3.8 2.8-6.3 9 3.9 5.5-10.9 7.4 3.3-5.4 10.9 7.6 3.3 5.4-10.9 7.5 3.3-5.5 10.9 7.7 3.4-2.8 6.4-8-3.6-6.1 12.4 8.6 3.8-2.8 6.4-9-4-5.4 10.9zm8.5-17.1 6.2-12.3-7.7-3.4-6.1 12.4z" fill="#70683f"/></svg>