<svg height="203" viewBox="0 0 195 203" width="195" xmlns="http://www.w3.org/2000/svg"><g fill="#bdffd9" stroke-width="4"><circle cx="98" cy="102" r="91" stroke="#7ba68d" stroke-miterlimit="10"/><g stroke="#512500" stroke-linecap="round" stroke-linejoin="round"><path d="m38.1 58.4 11.1 7.5"/><path d="m74.7 151.2-7.5 11.2"/><path d="m141.1 64.1-7.5 11.2"/><path d="m165.4 106.2 7.5 8.4"/><path d="m90.3 160.2 7.5 8.4"/><path d="m108 35.6 7.5 8.4"/><path d="m130.8 116.3-13.8 11.7"/><path d="m165.9 65.9-12.7 17.5"/><path d="m55.2 135.5-12.7 17.4"/><path d="m90.1 74.8 8 6.6"/><path d="m137.3 147.9 8 6.6"/><path d="m26.8 102 16.8 8.4"/><path d="m74.4 106.2-6.8 10.1"/><path d="m71 28.5 14.8 9.3"/></g></g></svg>